PathFileType	4	(X/Y/Z)	F:\MotionCapture\20160217\3\Generated_files\EMG_test01-Dynamic.trc
DataRate	CameraRate	NumFrames	NumMarkers	Units	OrigDataRate	OrigDataStartFrame	OrigNumFrames
120.00	120.00	       7	39	mm	120.00	351	       701
Frame#	Time	Top.Head			Front.Head			Rear.Head			R.Shoulder			R.Offset			R.Elbow			R.Wrist			L.Shoulder			L.Elbow			L.Wrist			R.ASIS			L.ASIS			V.Sacral			R.Thigh			R.Knee			R.Shank			R.Ankle			R.Heel			R.Toe			L.Thigh			L.Knee			L.Shank			L.Ankle			L.Heel			L.Toe			R1			R2			R3			R4			R5			R6			R7			L1			L2			L3			L4			L5			L6			L7			V_Mid_ASIS			V_Pelvis_Origin			V_R.Hip_JC			V_L.Hip_JC			V_R.Knee_JC			V_L.Knee_JC			V_R.Ankle_JC			V_L.Ankle_JC			V_Mid_Hip			V_Mid_Shoulder			V_R.Hand			V_L.Hand			V_R.Toe_Offset_Static			V_L.Toe_Offset_Static			V_R.Toe_Offset			V_L.Toe_Offset			
		X1	Y1	Z1	X2	Y2	Z2	X3	Y3	Z3	X4	Y4	Z4	X5	Y5	Z5	X6	Y6	Z6	X7	Y7	Z7	X8	Y8	Z8	X9	Y9	Z9	X10	Y10	Z10	X11	Y11	Z11	X12	Y12	Z12	X13	Y13	Z13	X14	Y14	Z14	X15	Y15	Z15	X16	Y16	Z16	X17	Y17	Z17	X18	Y18	Z18	X19	Y19	Z19	X20	Y20	Z20	X21	Y21	Z21	X22	Y22	Z22	X23	Y23	Z23	X24	Y24	Z24	X25	Y25	Z25	X26	Y26	Z26	X27	Y27	Z27	X28	Y28	Z28	X29	Y29	Z29	X30	Y30	Z30	X31	Y31	Z31	X32	Y32	Z32	X33	Y33	Z33	X34	Y34	Z34	X35	Y35	Z35	X36	Y36	Z36	X37	Y37	Z37	X38	Y38	Z38	X39	Y39	Z39	

351	2.917	-1225.09924	132.33022	1685.54871	-1105.23999	135.12431	1614.79309	-1325.52905	140.02419	1605.76831	-1273.85950	-54.80365	1372.05420	-1385.21558	230.55313	1239.67566	-1403.83276	-129.70206	1073.87195	-1413.53186	-156.17839	811.88062	-1212.76062	348.02792	1381.67480	-1101.31519	455.10284	1085.16187	-875.47223	388.10257	980.53265	-1180.12451	16.79879	902.27185	-1192.72400	307.28156	900.44446	-1410.54468	147.98045	905.56891	-1036.67920	48.69172	586.23566	-1050.06067	3.56220	471.40070	-951.83630	67.52888	261.08527	-927.94714	-2.55507	87.08365	-970.81189	63.89449	30.85859	-790.26953	13.41869	121.19902	-1225.95728	253.70326	569.13019	-1374.30713	293.33652	437.48822	-1413.61523	211.42630	303.35864	-1581.34033	263.63623	82.00394	-1646.70691	205.52788	79.98138	-1448.22498	257.88852	38.92839	-755.94794	27.04457	148.34523	-786.34290	48.74276	129.90652	-873.04095	84.69991	100.80754	-929.19269	90.64223	54.70049	-947.12341	17.72218	44.21465	-872.57300	-13.90477	68.22533	-815.90613	-22.70758	95.52075	-1402.19385	234.31116	32.83565	-1435.52454	219.13869	41.67303	-1526.71716	175.27634	55.43035	-1607.84814	174.31677	71.57256	-1620.77002	246.14400	72.15298	-1551.71082	276.29773	41.98573	-1489.35779	290.17407	37.26476																																																	-1403.70227	270.35828	-90.37226	-907.86786	-60.18573	803.40222	
352	2.925	-1211.88953	131.25108	1683.76172	-1091.34326	134.45683	1613.13367	-1312.13928	139.09993	1603.89734	-1261.56360	-56.13505	1370.32666	-1372.13440	229.27347	1237.78662	-1392.38489	-130.58426	1072.64771	-1403.41040	-156.10577	810.64612	-1199.58838	346.80493	1379.91345	-1087.36877	453.25665	1083.64282	-859.82568	386.84357	983.34650	-1166.67603	15.38051	901.04340	-1180.32434	306.51215	898.64050	-1397.23010	145.73065	903.75403	-1021.89154	48.65556	586.35779	-1036.22754	3.04107	470.09708	-938.73511	67.21692	259.28940	-915.94025	-1.91475	85.02174	-959.14832	64.67807	29.03386	-778.10443	14.00803	118.99181	-1215.65271	254.26613	566.88947	-1365.36890	293.94196	437.06119	-1407.20117	211.27187	302.99338	-1579.63086	263.73489	84.96003	-1644.89453	205.93600	85.02559	-1448.06592	258.23480	38.86174	-743.67004	27.34017	146.33478	-774.00507	49.18638	127.74892	-861.05334	85.62746	99.01994	-917.50708	91.55177	52.70633	-935.17749	18.39225	42.14755	-860.82666	-13.20586	66.65723	-804.24817	-22.33024	93.48995	-1402.04688	234.38803	32.75664	-1435.38611	219.32315	41.65791	-1525.08875	175.94482	57.65273	-1606.14026	174.83643	75.95821	-1619.50085	246.72377	76.30106	-1550.64978	276.74194	43.89966	-1488.94019	290.37930	37.23512																																																	-897.78699	-61.07241	801.91602	
353	2.933	-1198.46228	130.66553	1682.23694	-1078.79395	132.95944	1611.06665	-1298.88098	137.70148	1602.45972	-1248.78650	-57.41487	1369.24597	-1358.81067	228.15155	1236.28711	-1380.49634	-131.20583	1071.69360	-1392.59949	-157.11754	810.15308	-1186.61707	345.32938	1378.19360	-1073.78162	451.85202	1082.02344	-844.57245	385.35730	986.04089	-1152.68823	14.44836	899.96832	-1167.29590	305.71579	896.88171	-1383.93860	143.48157	902.21869	-1007.16089	48.86578	587.54547	-1022.29730	2.62922	468.87326	-926.62122	68.12363	256.86273	-905.12177	-0.57232	81.72362	-948.91388	65.81766	26.74078	-767.67181	14.33597	115.01035	-1203.50818	254.20724	565.22461	-1356.06885	293.57605	436.60934	-1399.73499	212.30473	302.61166	-1577.52515	264.79776	89.10903	-1643.12354	206.74232	90.56311	-1447.88879	258.42978	38.86174	-732.43671	27.66625	141.59540	-763.18481	49.61670	123.95952	-850.14368	86.26047	95.55000	-907.34662	92.68642	49.93538	-925.06812	19.67334	39.46100	-850.01813	-12.30176	62.80449	-794.25391	-21.62169	89.97638	-1401.92639	234.34525	32.66051	-1435.27454	219.57190	41.68254	-1524.35571	176.48528	60.62492	-1603.93164	175.77791	80.20175	-1617.64978	247.33202	80.70601	-1549.83362	277.57632	46.32813	-1488.23242	290.70801	37.12748	
354	2.942	-1185.19250	129.51439	1680.45190	-1065.73804	132.18724	1609.89124	-1285.63025	136.66652	1600.81812	-1235.76123	-58.72659	1367.61926	-1345.42102	226.74434	1234.61365	-1368.75195	-132.53632	1070.58215	-1381.58044	-158.01361	809.21454	-1172.85022	343.65924	1376.70325	-1060.59753	450.03885	1080.84094	-829.37384	384.15857	988.40686	-1139.06763	12.86295	899.42889	-1153.78284	303.79834	895.14789	-1370.14124	141.24924	900.56976	-991.80359	48.94403	588.33832	-1008.47137	2.23464	468.00671	-915.64130	68.75750	254.24149	-896.66913	-0.09206	78.72844	-942.19922	66.61904	24.96189	-759.27142	15.02640	110.22336	-1193.06982	254.55511	563.45337	-1346.02124	294.26300	436.07706	-1392.93787	212.82341	302.57748	-1575.75818	265.65955	93.33272	-1640.58752	207.50844	96.75138	-1447.68188	258.90018	38.75716	-723.00574	28.37141	136.23228	-754.00226	50.69881	118.86221	-841.81750	87.29042	91.23537	-899.94397	93.45692	46.53516	-916.85382	20.23704	36.47508	-843.08911	-11.48147	59.55143	-785.25232	-20.68532	85.38018	-1401.89758	234.32259	32.61989	-1434.84790	219.83777	41.72559	-1522.94995	177.28905	63.48354	-1601.64673	176.71147	85.31207	-1615.77271	248.04523	85.65295	-1548.63977	277.00598	47.59733	-1487.91431	290.93274	37.30962	
355	2.950	-1171.79468	128.46477	1679.26538	-1051.61853	131.19244	1608.45508	-1272.50977	135.25623	1599.43652	-1223.04919	-60.23389	1366.26758	-1331.89136	225.23854	1233.22290	-1356.66760	-133.44978	1070.10559	-1369.40576	-158.27133	808.15973	-1159.58203	341.68695	1375.52759	-1047.19434	448.65564	1079.42102	-815.24237	383.25970	990.25684	-1124.59863	11.31242	898.93243	-1140.30310	302.49457	893.79840	-1355.76135	138.84085	899.01691	-980.06183	49.20192	588.40924	-994.89349	2.43393	466.76465	-905.56848	69.19178	250.43556	-889.59735	0.54271	75.36893	-937.54504	66.26160	24.88996	-751.29480	16.13005	103.90288	-1181.21863	254.32306	561.82385	-1335.78723	294.85410	435.46143	-1384.56726	213.96660	302.28137	-1573.21729	266.68518	97.93887	-1637.40625	208.32524	103.07945	-1447.33362	259.19101	38.74934	-714.35822	29.72515	129.16573	-746.23016	51.65522	112.34158	-835.11316	89.16506	85.31489	-894.36731	94.69380	42.39174	-911.68738	20.43398	34.52859	-838.47919	-10.25910	54.57629	-780.19775	-20.45942	79.90398	-1401.83911	234.27240	32.54265	-1434.58240	220.03992	41.67397	-1520.49231	178.28157	66.76682	-1599.04468	177.35251	91.13861	-1613.12219	249.25574	91.30863	-1547.35291	277.54926	50.03131	-1487.63123	291.13760	37.29398																																																	-500.01306	87.13541	216.32097	
356	2.958	-1158.26941	127.39304	1677.89319	-1038.59473	129.78320	1606.84753	-1258.92664	134.16211	1598.17529	-1209.42908	-61.51979	1365.45032	-1318.37061	223.70442	1231.70313	-1343.89307	-134.65440	1068.86572	-1357.42212	-158.80418	806.96924	-1146.30432	340.14612	1374.39526	-1035.20435	447.21796	1078.35217	-801.47687	382.39511	991.65063	-1110.59497	9.69170	898.95074	-1126.96521	301.11877	892.32178	-1342.03418	136.46863	897.69550	-965.40424	48.78133	588.69452	-980.79596	1.70945	465.30096	-896.23950	70.66534	246.87709	-883.02905	0.93985	72.33075	-936.51678	65.76559	25.92663	-742.34741	19.10880	91.40939	-1168.72583	254.74850	560.09271	-1324.42969	295.24576	434.97958	-1376.29846	215.05219	302.11636	-1571.22717	267.90408	102.55041	-1633.84033	209.67920	110.42547	-1446.82971	259.58624	38.64954	-705.39502	34.04160	114.12430	-737.97382	52.28003	100.07611	-829.21222	90.34863	78.94854	-892.82623	94.86369	41.45217	-908.41400	20.95564	34.22283	-834.03552	-8.16439	48.63227	-774.40863	-18.81794	70.61234	-1401.85474	234.13947	32.51099	-1434.36157	220.48711	41.47951	-1518.35718	179.56453	70.64445	-1595.80908	178.50896	97.50061	-1610.28772	249.76035	97.31721	-1545.93945	278.42126	52.35450	-1486.88013	291.41522	37.55199																																																	-1514.34485	97.39677	1445.12756	
357	2.967	-1145.47449	126.36270	1677.31824	-1025.89368	128.76413	1606.44739	-1245.79236	132.85944	1597.13049	-1196.48230	-63.21239	1364.54736	-1304.58252	221.96132	1230.48425	-1331.21606	-135.95102	1067.98621	-1344.08044	-159.72610	805.96509	-1132.46472	338.21124	1373.61450	-1022.53656	446.04648	1076.82117	-788.25763	382.20334	992.63409	-1096.10449	8.04165	899.32349	-1112.31909	299.03296	890.98358	-1328.01343	133.94896	896.28961	-951.81885	47.70305	588.18719	-966.90881	0.67337	464.01260	-885.86664	71.78613	244.87793	-877.58826	0.82868	71.46098	-935.30597	64.15977	28.82671	-736.38599	20.00622	76.87273	-1153.92981	255.48727	558.88629	-1313.17322	296.09409	434.36292	-1366.83215	216.30411	302.22974	-1567.30273	269.27823	108.06100	-1629.45129	210.49522	117.98740	-1446.11487	260.13821	38.64307	-696.54871	35.87315	96.04407	-728.78345	55.56243	85.29381	-823.60986	90.99850	73.44075	-889.09808	95.30155	40.19688	-906.37024	20.98411	35.24085	-829.66980	-8.23113	43.29380	-770.80927	-18.40059	59.07249	-1401.60840	234.21130	31.93971	-1432.88721	220.02249	41.18526	-1515.37756	180.66776	74.31358	-1591.51843	179.79305	104.57754	-1606.36572	251.29460	103.82037	-1544.36206	279.48151	55.50802	-1486.03308	291.67340	37.96184																																																	-1676.55383	244.94261	154.84062	-1501.89136	96.16655	1444.42834	
